<?xml version="1.0" encoding="UTF-8"?>
<svg id="Calque_1" xmlns="http://www.w3.org/2000/svg" version="1.1" viewBox="0 0 340 289.1">
  <!-- Generator: Adobe Illustrator 29.2.1, SVG Export Plug-In . SVG Version: 2.1.0 Build 116)  -->
  <defs>
    <style>
      .st0 {
        fill: #ffffff;
      }
    </style>
  </defs>
  <g>
    <polygon class="st0" points="58.9 239.3 58.9 211.7 69.3 211.7 69.3 203.1 38.5 203.1 38.5 211.7 49 211.7 49 239.3 58.9 239.3"/>
    <rect class="st0" x="73" y="203.1" width="9.9" height="36.2"/>
    <polygon class="st0" points="152.2 211.7 152.2 203.1 126.8 203.1 126.8 239.3 152.6 239.3 152.6 230.6 136.8 230.6 136.8 224.9 149.9 224.9 149.9 216.8 136.8 216.8 136.8 211.7 152.2 211.7"/>
    <path class="st0" d="M188.5,239.3l-7.7-13.3c1.1-.8,2-1.7,2.8-2.8s1.4-2.3,1.8-3.5c.4-1.3.6-2.6.6-4s-.3-3-.9-4.5c-.6-1.5-1.4-2.8-2.5-4.1-1.1-1.2-2.4-2.2-3.9-2.9s-3.1-1.1-4.9-1.1h-16.6v36.2h9.9v-11.1h4l6.4,11.1h11ZM175.6,217.7c-.3.6-.6,1-.9,1.3s-.8.5-1.2.5h-6.3v-7.8h6c.4,0,.8.2,1.2.5s.8.7,1.1,1.3.4,1.3.4,2.1-.1,1.5-.4,2.1h0Z"/>
    <polygon class="st0" points="229.9 203.1 199.1 203.1 199.1 211.7 209.6 211.7 209.6 239.3 219.5 239.3 219.5 211.7 229.9 211.7 229.9 203.1"/>
    <path class="st0" d="M237.2,239.3l1.9-7.1h10.2l1.9,7.1h10.1l-11.5-36.2h-11.1l-11.6,36.2h10.1ZM244.2,212.8l3.4,12.8h-6.7l3.4-12.8h0Z"/>
    <path class="st0" d="M107,227.1h6.3c-.9,1-2,1.8-3.1,2.4-1.5.8-3,1.2-4.6,1.2s-2.4-.2-3.4-.7-1.9-1.1-2.6-1.9c-.7-.8-1.3-1.8-1.7-3-.4-1.2-.6-2.4-.6-3.9s.2-2.7.6-3.9,1-2.2,1.7-3,1.6-1.5,2.6-2,2.1-.7,3.3-.7,3.1.4,4.5,1.3,2.5,2,3.2,3.4l7.4-5.7c-1.3-2.4-3.3-4.4-5.9-5.8-2.7-1.4-5.6-2.1-8.9-2.1s-5,.5-7.3,1.4c-2.2.9-4.2,2.2-5.9,3.9-1.7,1.6-3,3.6-4,5.7s-1.4,4.5-1.4,7.1.5,5.6,1.4,7.9c.9,2.3,2.2,4.2,3.9,5.9,1.6,1.6,3.5,2.8,5.6,3.7,2.1.8,4.4,1.2,6.7,1.2,3.4,0,6.3-1.1,8.9-3.3v3h8.2v-19.3h-14.9v7.1h0Z"/>
    <path class="st0" d="M280.7,227.1h6.3c-.9,1-2,1.8-3.1,2.4-1.5.8-3,1.2-4.6,1.2s-2.4-.2-3.4-.7-1.9-1.1-2.6-1.9c-.7-.8-1.3-1.8-1.7-3-.4-1.2-.6-2.4-.6-3.9s.2-2.7.6-3.9,1-2.2,1.7-3,1.6-1.5,2.6-2,2.1-.7,3.3-.7,3.1.4,4.5,1.3,2.5,2,3.2,3.4l7.4-5.7c-1.3-2.4-3.3-4.4-5.9-5.8-2.7-1.4-5.6-2.1-8.9-2.1s-5,.5-7.3,1.4-4.2,2.2-5.9,3.9c-1.7,1.6-3,3.6-4,5.7s-1.4,4.5-1.4,7.1.5,5.6,1.4,7.9c.9,2.3,2.2,4.2,3.9,5.9,1.6,1.6,3.5,2.8,5.6,3.7,2.1.8,4.4,1.2,6.7,1.2,3.4,0,6.3-1.1,8.9-3.3v3h8.2v-19.3h-14.9v7.1h0Z"/>
  </g>
  <g>
    <path class="st0" d="M294.4,270.4h-68.9c-1.1,0-2,.9-2,2s.9,2,2,2h68.9c1.1,0,2-.9,2-2s-.9-2-2-2Z"/>
    <path class="st0" d="M109.1,270.4H39.6c-1.1,0-2,.9-2,2s.9,2,2,2h69.5c1.1,0,2-.9,2-2s-.9-2-2-2Z"/>
    <path class="st0" d="M144.6,270.6c.8-.9,1.4-1.9,1.8-3,.4-1.1.6-2.3.6-3.6s-.2-2.4-.7-3.6-1.1-2.2-1.9-3.2c-.8-.9-1.8-1.7-3-2.2-1.1-.6-2.4-.8-3.8-.8h-13v29.4h5.7v-9.9h5.7l6.1,9.9h6.3l-6.7-11.1c1.1-.5,2-1.1,2.8-2h0ZM140.9,266.4c-.3.7-.8,1.3-1.3,1.7-.6.4-1.2.6-1.9.6h-7.2v-9.5h6.9c.7,0,1.3.2,1.9.6.6.4,1.1,1,1.5,1.7s.6,1.5.6,2.5-.2,1.7-.5,2.4h0Z"/>
    <polygon class="st0" points="152.3 283.6 158 283.6 158 271.4 169.7 271.4 169.7 266.8 158 266.8 158 259.2 172.1 259.2 172.1 254.2 152.3 254.2 152.3 283.6"/>
    <rect class="st0" x="176.1" y="254.2" width="5.7" height="29.4"/>
    <path class="st0" d="M206.7,256.2c-2.2-1.3-4.8-2-8-2h-10.7v29.4h10.7c3,0,5.5-.6,7.7-1.8,2.2-1.2,3.8-2.9,5-5.1s1.8-4.8,1.8-7.8-.5-5.2-1.6-7.4c-1.1-2.2-2.7-4-4.9-5.3h0ZM206.4,273.9c-.7,1.5-1.7,2.6-3,3.5-1.3.8-2.9,1.3-4.8,1.3h-5v-19.4h5c1.9,0,3.4.4,4.7,1.2,1.3.8,2.3,1.9,3,3.4s1,3.1,1,5-.3,3.5-1,5h.1Z"/>
  </g>
  <g>
    <path class="st0" d="M143.2,82.3s2-.9,3.9-.7c1.4.5-2.3-3-2.3-3.1-1.1-.9-3.8-1.8-4.9-2.2,0,0-3.5-1.1-4.6-1.1.4,1.3,1.8,4.3,1.8,4.3,1.4,2.9,3.7,3,6,2.8h.1Z"/>
    <path class="st0" d="M186.6,81.6c1.9-.2,3.9.7,3.9.7,2.4.3,4.7.2,6-2.8,0,0,1.4-3,1.8-4.3-1.1,0-4.6,1.1-4.6,1.1-1.1.3-3.8,1.3-4.9,2.2,0,0-3.7,3.6-2.3,3.1h.1Z"/>
    <path class="st0" d="M152.6,143.1c1.1-.3,6.3-2.4,7.9-4,2.3-2.3,3.5-3.5,3.8-5.3.6-3.1,0-4-.8-5.2-.9-1.3-2-2.5-3.2-3.2-.8-.4-2.8-.8-3.9-1-.6,0-3.1-.2-5.1-2.4l-.5-.7c-1.1-1.4-1.6-3-1.5-4.7l.5-10.8v-11.6c0-.9-.2-1.8-.6-2.7l-.5-1.1c-.5-1.1-1.3-2-2.3-2.7-.6-.4-1.2-.7-1.8-.7l-3.3.3c-1.5,0-3,0-4.4-.7-.7-.3-1.1-.6-1.1-.6-1.7-.9-2.7-2.5-3.5-4.2l-1.8-3.9c-.2-.4-.4-.7-.7-1.1l-2.8-3.8c-1.1-1.7-1.4-3.5-1.2-5.5l1.1-5.7c-.3-.2-6,7.3-6,7.3,0,0-2.2,4.3-2.4,7.3-.4,6.1,1.5,16,2.3,17.6,1,1.9,7.7,13.9,7.7,13.9,0,0,.5.5.7,0,.2-.4,1.5-2.8,2.7-3.8,1.9-1.5,7.5-4.9,9.1-5.6s2.5-3.8,3-3.4c.6.4-1,4.4-1,4.4,0,0-1.6,4.1-3.2,6.3-.6.8-3.6,8.1-3.8,8.7-.3,1-.8,2.7-1.2,4.4-.4,1.8,0,3.6,1.2,5,4.1,5,10.6,8,13,9.1.2,0-.1.4-.3.4-3.4-.2-14.5-1.5-14.4-1.3,0,.2,5.4,5.9,7,8.2,1.6,2.4,8.6,3.4,11.1,2.8h.2Z"/>
    <path class="st0" d="M184.9,133.4c-.2,0-.5-.3-.3-.4,2.3-1,8.8-4,13-9.1,1.2-1.4,1.6-3.3,1.2-5-.4-1.7-.8-3.5-1.2-4.4-.2-.6-3.2-7.9-3.8-8.7-1.6-2.2-3.2-6.3-3.2-6.3,0,0-1.5-4-1-4.4.6-.4,1.4,2.7,3,3.4s7.3,4.1,9.1,5.6c1.3,1,2.5,3.5,2.7,3.8.2.4.7,0,.7,0,0,0,6.7-12,7.7-13.9.8-1.5,2.7-11.4,2.3-17.6-.2-3-2.4-7.3-2.4-7.3,0,0-5.7-7.5-6-7.3l1.1,5.7c.3,2,0,3.8-1.2,5.5l-2.8,3.8c-.3.3-.5.7-.7,1.1l-1.8,3.9c-.8,1.7-1.7,3.3-3.5,4.2,0,0-.4.3-1.1.6-1.4.6-2.9.8-4.4.7l-3.3-.3c-.6,0-1.2.3-1.8.7-1,.7-1.7,1.7-2.3,2.7l-.5,1.1c-.4.8-.6,1.7-.6,2.7v11.6l.5,10.8c0,1.7-.5,3.4-1.5,4.7l-.5.7c-2.1,2.2-4.5,2.3-5.1,2.4-1.1.2-3.1.6-3.9,1-1.2.6-2.4,1.9-3.2,3.2-.8,1.2-1.4,2.1-.8,5.2.3,1.8,1.5,3,3.8,5.3s6.8,3.7,7.9,4c2.5.6,9.5-.4,11.1-2.8,1.6-2.4,7-8,7-8.2s-11,1.1-14.4,1.3h.2Z"/>
    <path class="st0" d="M133.5,147.3c-.8-1.6-1.5-3.3-2-5l-7.2-24.4c-.2-.8,0-1.6-.3-1.7-.2,0-.7,1.4-.8,1.7l-.2.7c-1.1,4.2-1.4,8.6-.8,13l.5,5.4h0s-2.1-3.4-3.6-7.3c-3-6.2-4-12.4-4.4-17v-14.1c-.2-.5,0-1,0-1.5l1.1-14.7c0-.2-.3-.2-.3,0l-9.6,27.1c-4.3,12.5-2.9,18.9,2.9,24.7,6.3,6.4,15.4,18.9,15.4,18.9,0,0,.2,0,0,0,0,0-1.2-10.1-2-12.2,0,0,0-.1,0,0,0,0,3.7,2.4,7.1,10,2.2,5,11,11.4,11,11.4.4.4,1,0,.7-.5l-7.5-14.5h0Z"/>
    <path class="st0" d="M218.2,82.6l1.1,14.7v15.6c-.5,4.5-1.6,10.8-4.5,17-1.5,3.8-3.6,7.3-3.6,7.3h0l.5-5.4c.6-4.3.4-8.7-.8-13l-.2-.7c0-.3-.5-1.7-.8-1.7s-.1.9-.3,1.7l-7.2,24.4c-.5,1.7-1.2,3.4-2,5l-7.5,14.5c-.2.4.4.8.7.5,0,0,8.8-6.4,11-11.4,3.4-7.5,7.1-10,7.1-10h.1c-.8,2.1-2,12.2-2,12.2,0,0,0,.1.1,0,0,0,9.1-12.4,15.4-18.9,5.8-5.8,7.2-12.2,2.9-24.7l-9.6-27.1c0-.2-.3,0-.3,0h0Z"/>
    <path class="st0" d="M188.1,149.9c-1.2.3-3.9.8-7.3.3-4.5-.6-10.2-5.5-13.7-5.9h-.5c-3.5.4-9.2,5.3-13.7,5.9-3.4.5-6.1,0-7.3-.3-.2,0-.4.2-.3.4l4,7.4c.4.7.8,1.4,1.4,2.1l5.8,6.5c.2.2.5,0,.5-.2-.1-1.7-.4-5.7-.4-6.4,0-1.8.6-3.2,1.4-2.2.9,1,8.6,14.7,8.8,14.7s8-13.8,8.8-14.7c.9-1,1.5.4,1.4,2.2,0,.7-.3,4.7-.4,6.4,0,.2.3.4.5.2l5.8-6.5c.6-.6,1-1.3,1.4-2.1l4-7.4c.1-.2,0-.5-.3-.4h.1Z"/>
    <path class="st0" d="M335.4,82l-81.9,2.5c0-2.8.1-5.4.1-7.6l21.9-.2c1.6,0,3.2-.4,4.7-1.1l7.6-3.7c0,0,.2.2.3.3,1.6,1.6,3.8,2.5,6.1,2.5s0,0,0,0c2.3,0,4.5-.9,6.1-2.6.8-.8,1.4-1.7,1.8-2.7l16.1-.2c1.9,0,3.5-1.6,3.5-3.5s-1.6-3.5-3.5-3.5h0l-16.1.2c-1.4-3-4.4-5.1-7.9-5.1s0,0,0,0c-2.3,0-4.5.9-6.1,2.6-1.4,1.5-2.3,3.3-2.5,5.3l-8.4,4.1c-.5.2-1.1.4-1.7.4l-21.9.2c-.2-10.6-8.3-19.3-16.2-24.2,3.6-16-4-32.2-4.4-33.1l-.8-1.7-1.9-.2c-.8,0-19.7-2.2-37.4,6.9-6.7-6.8-22.3-15-25.9-15s-19.3,8.2-25.9,15c-17.7-9.1-36.6-7-37.4-6.9l-1.9.2-.8,1.7c-.4.9-8.1,17.1-4.4,33.1-8,4.9-16.2,13.7-16.2,24.4v1.7l-60.7.8c-1.9,0-3.5,1.6-3.5,3.5s1.6,3.5,3.5,3.5,0,0,0,0l60.6-.8c0,3.2,0,7,.4,11l-65.6,2.4c-1.9,0-3.4,1.7-3.4,3.6s1.6,3.4,3.5,3.4,0,0,.1,0l65.9-2.4c.4,3.7.9,7.4,1.6,10.7l-72.3,4.1c-1.9,0-3.4,1.8-3.3,3.7,0,1.9,1.6,3.3,3.5,3.3s.1,0,.2,0l73.8-4.2c.4,1,.8,2,1.2,2.9-.9,2.6-1.8,5.2-2.7,7.9l-77.4,6c-1.9.2-3.4,1.8-3.2,3.8,0,1.8,1.7,3.2,3.5,3.2s.2,0,.3,0l74.7-5.8c-.5,1.6-.9,3.3-1.3,4.9,0,.2,0,.4.3.4,7.8.6,12.4,1.4,15.8,2.4,2.5.7,4.6,2.2,6,4.3,4.3,6.4,8.5,11.7,14.4,16.4,20.6,16.4,39.3,23.3,50.4,24.9h1c11.1-1.6,29.8-8.5,50.4-24.9,5.9-4.7,10.2-10,14.4-16.4,1.4-2.1,3.5-3.6,6-4.3,3.3-.9,8-1.7,15.8-2.4.2,0,.4-.2.3-.4-1.3-5.3-3.1-10.9-5-16.6l21-1.4c.6,0,1.2,0,1.7.3l8.7,3.4c.3,2,1.3,3.8,2.9,5.1,1.6,1.4,3.6,2.1,5.7,2.1s.4,0,.6,0c3.5-.2,6.5-2.6,7.6-5.7l12.6-.9c1.9,0,3.4-1.8,3.3-3.7-.1-1.9-1.8-3.4-3.7-3.3l-12.6.9c-1.6-3-4.8-4.9-8.3-4.7-2.5.2-4.8,1.4-6.2,3.3l-7.9-3.1c-1.5-.6-3.1-.8-4.7-.7l-20.2,1.4c.7-2.1,1.4-4.7,1.9-7.6h.7l45.1-2.3c1.9,0,3.4-1.7,3.3-3.7,0-1.9-1.7-3.4-3.7-3.3l-44.4,2.2c.3-2.3.5-4.9.6-7.6l82.5-2.6c1.9,0,3.5-1.7,3.4-3.6,0-1.9-1.6-3.4-3.6-3.4l-.5.2ZM294.2,62.8h0c1.8,0,3.2,1.4,3.2,3.2s-.3,1.7-.9,2.3c-.6.6-1.4,1-2.3,1-1.8,0-3.2-1.4-3.3-3.2,0-1.8,1.4-3.2,3.2-3.3h0ZM286.8,119.5c.6-.6,1.4-1,2.2-1.1h.2c1.7,0,3.1,1.3,3.2,3,.1,1.8-1.2,3.3-3,3.4-.9,0-1.7-.2-2.3-.8-.7-.6-1-1.4-1.1-2.2s.2-1.7.8-2.3h0ZM87.1,70.4h0c0-7.4,5.8-13.8,11.5-17.8,1.5,3.2,3.5,6.3,6.3,9.1l5-4.9c-12.6-13-6-33.2-3.6-39.4,5.3-.3,20.4-.2,33.7,7.6l2.9,1.7,1.8-2.9c2.9-4.8,18.5-13.4,22.1-14.3,3.6.9,19.1,9.5,22.1,14.3l1.8,2.9,2.9-1.7c13.2-7.8,28.4-7.9,33.7-7.6,2.4,6.1,9,26.3-3.6,39.4l5,4.9c2.8-2.8,4.8-5.9,6.3-9.1,5.7,3.9,11.5,10.4,11.5,17.6h0c0,.2.3,9.3-.3,19.6-.5,7.8-1.2,13.3-2.1,17.2-3.9-9.9-8-19.1-11.2-26.3-7-15.4-19.7-27.1-34.1-36.7-2.4-1.6-4.7-3.1-6.7-4.8,0,0,0,0,.1,0,.8,0,5,1,10.8,2.7h.6c.8,0,1.6-.3,2.1-.8,4.1-4.4,8.6-6.2,11.8-6.2s2.1.2,2.8.6c2.3,1.3,1.8,5.6,1.4,6.3h0s1.8-3.1,2.1-8.2c.2-4-1.7-5.5-1.3-10-2.8.5-11.6-.6-26.7,9.1-.2.1-.6.3-.9.3s0,0-.1,0c-4.9-.6-19.8-7-27.7-9.3h-.7c-7.9,2.3-22.8,8.7-27.7,9.3h-.1c-.3,0-.7-.1-.9-.3-15.1-9.7-23.9-8.6-26.7-9.1.5,4.5-1.5,6-1.3,10,.4,5.1,2.1,8.2,2.1,8.2h0c-.3-.6-.8-5,1.4-6.3.7-.4,1.6-.6,2.8-.6,3.2,0,7.8,1.8,11.8,6.2.5.5,1.3.8,2.1.8s.4,0,.6,0c5.8-1.7,9.9-2.7,10.8-2.7s.2,0,.1,0c-2.1,1.7-4.3,3.2-6.7,4.8-14.4,9.6-27.1,21.3-34.1,36.7-3.3,7.2-7.4,16.5-11.3,26.4-2.2-10.3-2.7-26.4-2.4-36.7h.2ZM177.9,61.7c-1.9-.8-6.2-2.9-9.5-3.4-.6,0-1.1.4-.9.9l.4,1.7c.1.3.2.5.3.7v.2c1,1.6,2.1,3.3,1.7,5l-2.7,10.4s-.2.5-.6.5-.6-.5-.6-.5l-2.7-10.4c-.3-1.8.8-3.4,1.6-5v-.2c.2-.2.3-.5.4-.7l.4-1.7c.2-.5-.3-1-.9-.9-3.3.5-7.6,2.6-9.5,3.4-2.2.9-5.8,2.1-7.7,3.6-1.8,1.3-2.4,1.7-2.5,1.3s0-.8.4-1.9c.4-1.1,1.5-2.9,1.5-2.9,1.5-2.1,3.6-3,6.1-4l13.3-5.1h.1l13.3,5.1c2.6,1.1,4.6,1.9,6.1,4,0,0,1.1,1.8,1.5,2.9.4,1.1.5,1.6.4,1.9s-.7,0-2.5-1.3c-1.8-1.4-5.5-2.7-7.7-3.6h.3ZM178.8,70.6c-2.4,3.1-3.4,9.9-3.7,9.6s-.9-4.6-1.7-9.2c-.6-3.5-1.2-5.2-1.7-6.8,0-.2.4,0,1.6.5l4.4,2.5c1.2.9,1.7,2.4,1,3.3h0ZM161.8,64.3c-.4,1.5-1.1,3.3-1.7,6.8-.8,4.5-1.4,8.9-1.7,9.2-.3.3-1.3-6.5-3.7-9.6-.7-.9-.2-2.4,1-3.3l4.4-2.5c1.2-.6,1.7-.6,1.6-.5h0ZM183.3,53.5l-16.4-5-16.4,5c-.1,0-10,4.6-9.9,4,.2-1,4.6-3.1,9.3-8.3,1.3-1.4,5.7-2.3,6.3-2.5,4.1-1.3,7.8-2.1,10.3-3.1.3,0,.5,0,.8,0,2.5,1,6.2,1.7,10.3,3.1.6.2,5,1.1,6.3,2.5,4.7,5.2,9.1,7.2,9.3,8.3.1.6-9.8-4-9.9-4h0ZM143.9,45.9c-.1,0,3.3-4.3,9.2-6.8.5-.2,2.5-1.2,3.1-1.3,3.8-1.2,7.2-2.6,9.7-3.6.6-.3,1.4-.3,2,0,2.5,1,6,2.4,9.7,3.6.6.2,2.6,1.1,3.1,1.3,5.9,2.5,9.3,6.7,9.2,6.8-.5.4-4.3-1.5-5.1-1.8-.1,0-.2,0-.3,0l-16.8-4.6c-.5,0-.9,0-1.4,0l-16.8,4.6c-.1,0-.2,0-.3,0-.9.3-4.6,2.2-5.1,1.8h-.2ZM236.3,133.5c-4.1,1.1-7.6,3.7-9.9,7.1-4.6,6.9-8.4,11.2-13,14.8-23.1,18.4-40.9,22.5-46.5,23.4-5.6-.9-23.4-5-46.5-23.4-4.6-3.7-8.4-8-13-14.8-2.3-3.4-5.8-6-9.9-7.1-2.5-.7-5.5-1.3-9.2-1.8,3.9-12.9,10.1-28.7,18.9-48.1,5.6-12.3,16-23.4,31.6-33.9.3-.2.6-.4.9-.6-2.7,4.5-7.8,14-7.2,18.7.4,1.3,3,2,7.3,3.3,2.3.7,4.9,1.1,8.1,3.2,6.5,4.2,6.3,8.3,6.8,10.9.2.9.2,1.9,0,2.8h0l-.9,7.5c0,.3,0,.7-.2,1l-1.7,11.7c-.1.7-.4,4.8-.3,5.5l.6,1.9c.5,3.5,4.3,0,4.4,0,2.5-1.2,5.2,0,5.2,0,0,0,2.5,1.8,5.1,1.8h0c2.6,0,5.1-1.8,5.1-1.8,0,0,2.7-1.3,5.2,0,0,0,3.9,3.6,4.4,0l.6-1.9c0-.7-.2-4.8-.3-5.5l-1.7-11.7c0-.3-.1-.7-.2-1l-.9-7.5h0c-.1-.9,0-1.9,0-2.8.5-2.6.3-6.7,6.8-10.9,3.2-2,5.9-2.5,8.1-3.2,4.3-1.3,6.9-2,7.3-3.3.7-4.8-4.4-14.2-7.2-18.7.3.2.6.4.9.6,15.7,10.5,26,21.5,31.6,33.9,8.8,19.4,15.1,35.2,18.9,48.1-3.7.5-6.7,1.1-9.2,1.8h0Z"/>
  </g>
</svg>